<?xml version="1.0" standalone="no"?>
<!DOCTYPE svg PUBLIC "-//W3C//DTD SVG 20010904//EN"
 "http://www.w3.org/TR/2001/REC-SVG-20010904/DTD/svg10.dtd">

<svg version="1.0" xmlns="http://www.w3.org/2000/svg"
 width="432.000000pt" height="432.000000pt" viewBox="0 0 432.000000 400.000000"
 preserveAspectRatio="xMidYMid meet">
    <g transform="translate(0.000000,400.000000) scale(0.100000,-0.100000)"
    fill="#ffffff" stroke="none">
        <path d="M1360 3993 c-130 -15 -273 -73 -352 -142 -48 -42 -897 -1220 -950
        -1316 -249 -461 336 -1359 1295 -1988 422 -278 848 -458 1247 -528 110 -20
        367 -17 455 4 104 26 209 81 270 140 41 41 800 1092 918 1272 143 218 71 592
        -190 982 -592 888 -1919 1664 -2693 1576z m350 -159 c453 -70 1017 -349 1530
        -758 144 -115 456 -422 554 -546 425 -535 499 -986 189 -1144 -306 -155 -949
        -3 -1565 370 -680 412 -1228 996 -1390 1483 -29 86 -32 109 -32 216 -1 112 1
        124 28 183 86 187 316 252 686 196z"/>
        <path d="M1925 3197 c-95 -32 -125 -71 -125 -165 0 -167 154 -402 405 -619
        268 -232 597 -400 848 -433 164 -22 253 6 296 94 23 46 24 53 14 113 -14 79
        -83 221 -155 318 -147 198 -435 433 -686 559 -228 115 -481 171 -597 133z"/>
    </g>
</svg>